<svg xmlns="http://www.w3.org/2000/svg" viewBox="0 0 256 256"><rect width="256" height="256" style="fill:#c0ff6b"/><path d="M231.63,115.11a88.55,88.55,0,0,1-68.81,86.32c-66,16.88-78.39,27.75-78.58,27.92L98.55,191.6l1.11-3.32c-5.92-.13-6.47-.13-9.88-.14-9,0-13.81.12-13.81.12l4.21-10.91,9-23.42,33.26-86.11,25.86,60.69H122.49l-15.95,42a66,66,0,0,0,31.59,10.81c1.65.13,3.31.19,5,.19A66.44,66.44,0,0,0,147,48.78c-10.53-.93-45.08.15-45.08.15L94.2,70.2,76.75,118.13l-13.11,36L50.22,191,24.37,139.26H44.91l9.78-28L71.52,63.05l12.71-36.4h62.05A88.52,88.52,0,0,1,231.63,115.11Z"/></svg>