<svg xmlns="http://www.w3.org/2000/svg" viewBox="0 0 718.69 250.27"><path d="M255.92,109.22A109.35,109.35,0,0,1,171,215.8c-81.51,20.84-96.79,34.26-97,34.47L91.6,203.66l1.37-4.1c-7.32-.16-8-.16-12.2-.17-11.08,0-17.06.15-17.06.15l5.21-13.47,11.17-28.92L121.15,50.83l31.93,74.94H121.15l-19.69,51.9a81.49,81.49,0,0,0,39,13.35c2,.16,4.08.23,6.16.23a82,82,0,0,0,4.81-163.92c-13-1.15-55.65.18-55.65.18L86.22,53.77,64.68,112.94,48.49,157.38,31.93,202.89,0,139H25.37l12.07-34.56L58.23,44.94,73.92,0h76.61A109.3,109.3,0,0,1,255.92,109.22Z" style="fill:#c0ff6b"/><text transform="translate(274.24 188.63)" style="font-size:153.04962158203125px;fill:#d5d5d5;font-family:Meutas-ExtraBoldOblique, Meutas;font-weight:800;font-style:oblique">D<tspan x="114.48" y="0" style="letter-spacing:-0.022989633369424122em">E</tspan><tspan x="207.23" y="0">CH</tspan></text></svg>